<svg width="508" height="400" viewBox="0 0 508 400" fill="none" xmlns="http://www.w3.org/2000/svg">
<path d="M430.049 195.317C426.118 228.576 410.953 267.241 380.612 285.006C334.789 311.845 338.62 353.129 249.182 371.111C236.141 373.793 222.846 375.048 209.533 374.854C203.016 374.739 196.512 374.207 190.063 373.261C133.245 364.955 94.9728 325.446 80.9384 277.784C62.4991 214.969 99.3542 173.967 123.803 149.195C148.252 124.424 166.141 47.3575 253.927 29.0647C267.318 26.2124 280.994 24.9113 294.683 25.1871C325.915 25.9837 359.982 36.2108 383.552 57.614C385.333 59.2072 387.057 60.8707 388.724 62.6045C421.485 96.2088 435.408 149.98 430.049 195.317Z" fill="#0066CC"/>
<path opacity="0.7" d="M430.049 195.317C426.118 228.576 410.953 267.241 380.612 285.006C334.789 311.845 338.62 353.129 249.182 371.111C236.141 373.793 222.846 375.048 209.533 374.854C203.016 374.739 196.512 374.207 190.063 373.261C133.245 364.955 94.9728 325.446 80.9384 277.784C62.4991 214.969 99.3542 173.967 123.803 149.195C148.252 124.424 166.141 47.3575 253.927 29.0647C267.318 26.2124 280.994 24.9113 294.683 25.1871C325.915 25.9837 359.982 36.2108 383.552 57.614C385.333 59.2072 387.057 60.8707 388.724 62.6045C421.485 96.2088 435.408 149.98 430.049 195.317Z" fill="white"/>
<path d="M408.493 246.388H397.651C397.545 246.388 397.444 246.346 397.369 246.271C397.295 246.197 397.253 246.095 397.253 245.99C397.253 245.884 397.295 245.783 397.369 245.708C397.444 245.633 397.545 245.592 397.651 245.592H408.493C408.599 245.592 408.7 245.633 408.775 245.708C408.85 245.783 408.892 245.884 408.892 245.99C408.892 246.095 408.85 246.197 408.775 246.271C408.7 246.346 408.599 246.388 408.493 246.388Z" fill="#333333"/>
<path d="M392.813 246.388H83.1056C83 246.388 82.8987 246.346 82.824 246.271C82.7493 246.197 82.7073 246.095 82.7073 245.99C82.7073 245.884 82.7493 245.783 82.824 245.708C82.8987 245.633 83 245.592 83.1056 245.592H392.813C392.919 245.592 393.02 245.633 393.095 245.708C393.169 245.783 393.211 245.884 393.211 245.99C393.211 246.095 393.169 246.197 393.095 246.271C393.02 246.346 392.919 246.388 392.813 246.388Z" fill="#333333"/>
<path d="M377.255 177.153H370.332L369.471 171.102C366.626 170.532 363.922 169.403 361.516 167.781L356.649 171.43L351.758 166.539L355.425 161.654C353.818 159.245 352.703 156.541 352.145 153.7L346.123 152.833V145.915L352.168 145.048C352.742 142.203 353.872 139.5 355.495 137.094L351.846 132.226L356.737 127.335L361.622 131.002C364.03 129.392 366.734 128.278 369.576 127.722L370.443 121.7H377.355L378.228 127.745C381.074 128.315 383.778 129.446 386.182 131.072L391.05 127.423L395.941 132.314L392.274 137.199C393.887 139.605 395.002 142.31 395.554 145.154L401.576 146.015V152.932L395.531 153.799C394.957 156.646 393.826 159.351 392.204 161.76L395.853 166.627L390.962 171.518L386.094 167.834C383.686 169.443 380.983 170.558 378.14 171.114L377.255 177.153ZM371.023 176.356H376.594L377.437 170.452L377.724 170.399C380.649 169.866 383.427 168.72 385.878 167.037L386.118 166.873L390.892 170.47L394.804 166.545L391.225 161.771L391.39 161.543C393.095 159.082 394.259 156.287 394.804 153.342L394.851 153.061L400.826 152.212V146.671L394.922 145.851L394.869 145.57C394.345 142.629 393.201 139.833 391.513 137.369L391.354 137.129L394.939 132.355L391.026 128.442L386.253 132.021L386.012 131.857C383.552 130.15 380.757 128.985 377.812 128.442L377.537 128.395L376.652 122.497H371.082L370.238 128.401L369.963 128.46C367.022 128.982 364.226 130.126 361.762 131.816L361.522 131.974L356.748 128.39L352.836 132.302L356.415 137.076L356.256 137.311C354.553 139.762 353.389 142.547 352.842 145.482L352.789 145.763L346.861 146.612V152.183L352.765 153.026L352.818 153.301C353.36 156.248 354.527 159.044 356.239 161.502L356.397 161.736L352.801 166.51L356.725 170.429L361.499 166.844L361.727 167.008C364.177 168.714 366.963 169.876 369.898 170.417L370.18 170.475L371.023 176.356ZM373.858 164.905C370.793 164.905 367.796 163.996 365.247 162.293C362.698 160.589 360.711 158.168 359.539 155.336C358.366 152.504 358.059 149.387 358.658 146.38C359.256 143.374 360.733 140.612 362.901 138.445C365.069 136.277 367.831 134.802 370.838 134.204C373.845 133.607 376.961 133.915 379.793 135.089C382.625 136.263 385.045 138.25 386.748 140.8C388.45 143.349 389.358 146.346 389.357 149.412C389.355 153.522 387.722 157.462 384.815 160.368C381.909 163.273 377.968 164.905 373.858 164.905V164.905ZM373.858 134.716C370.95 134.716 368.108 135.578 365.69 137.193C363.272 138.809 361.388 141.105 360.275 143.792C359.162 146.478 358.871 149.434 359.438 152.286C360.006 155.138 361.406 157.758 363.462 159.814C365.518 161.87 368.138 163.27 370.99 163.838C373.842 164.405 376.798 164.114 379.484 163.001C382.171 161.888 384.467 160.004 386.083 157.586C387.698 155.168 388.56 152.326 388.56 149.418V149.418C388.556 145.521 387.005 141.784 384.249 139.029C381.492 136.274 377.755 134.725 373.858 134.722V134.716Z" fill="#333333"/>
<path d="M401.429 207.43H396.292L395.671 203.084C393.681 202.67 391.789 201.874 390.101 200.741L386.586 203.365L382.949 199.733L385.585 196.219C384.462 194.532 383.68 192.642 383.283 190.654L378.978 190.039V184.861L383.318 184.24C383.73 182.249 384.526 180.357 385.661 178.67L383.043 175.156L386.68 171.518L390.195 174.148C391.885 173.029 393.777 172.25 395.765 171.852L396.374 167.523H401.511L402.132 171.87C404.123 172.284 406.014 173.08 407.703 174.213L411.217 171.594L414.854 175.226L412.219 178.74C413.341 180.43 414.122 182.322 414.521 184.311L418.849 184.932V190.11L414.503 190.731C414.09 192.722 413.295 194.614 412.16 196.301L414.778 199.815L411.194 203.435L407.679 200.805C405.985 201.918 404.095 202.698 402.109 203.101L401.429 207.43ZM396.977 206.634H400.75L401.335 202.428L401.622 202.369C403.706 201.994 405.686 201.182 407.433 199.985L407.673 199.827L411.082 202.387L413.742 199.722L411.194 196.324L411.352 196.084C412.563 194.345 413.392 192.369 413.783 190.285L413.829 190.01L418.053 189.424V185.664L413.847 185.078L413.794 184.797C413.418 182.712 412.606 180.73 411.41 178.98L411.252 178.746L413.806 175.337L411.194 172.608L407.767 175.138L407.527 174.98C405.789 173.769 403.815 172.941 401.734 172.549L401.447 172.502L400.861 168.279H397.077L396.491 172.49L396.204 172.543C394.119 172.913 392.138 173.726 390.394 174.927L390.154 175.091L386.727 172.59L384.068 175.255L386.592 178.652L386.434 178.893C385.222 180.631 384.395 182.608 384.009 184.692L383.962 184.973L379.733 185.558V189.278L383.945 189.864L383.992 190.139C384.367 192.224 385.179 194.207 386.376 195.955L386.54 196.184L383.986 199.599L386.639 202.264L390.048 199.71L390.277 199.88C392.021 201.073 393.997 201.885 396.075 202.264L396.362 202.322L396.977 206.634ZM398.91 198.679C396.697 198.679 394.532 198.023 392.692 196.793C390.851 195.563 389.416 193.814 388.569 191.769C387.722 189.724 387.5 187.473 387.932 185.302C388.364 183.13 389.43 181.136 390.995 179.57C392.561 178.005 394.555 176.939 396.727 176.507C398.898 176.075 401.149 176.297 403.194 177.144C405.239 177.991 406.988 179.426 408.218 181.267C409.448 183.107 410.104 185.272 410.104 187.486C410.104 188.957 409.814 190.414 409.25 191.773C408.687 193.132 407.861 194.367 406.819 195.407C405.778 196.446 404.542 197.271 403.182 197.832C401.822 198.394 400.364 198.681 398.893 198.679H398.91ZM398.91 177.089C396.854 177.089 394.844 177.698 393.134 178.841C391.424 179.983 390.092 181.607 389.305 183.507C388.518 185.407 388.312 187.497 388.713 189.514C389.114 191.531 390.105 193.383 391.559 194.837C393.013 196.291 394.865 197.282 396.882 197.683C398.899 198.084 400.989 197.878 402.889 197.091C404.789 196.304 406.413 194.972 407.555 193.262C408.698 191.552 409.307 189.542 409.307 187.486C409.307 186.119 409.038 184.765 408.514 183.503C407.991 182.24 407.223 181.093 406.256 180.128C405.289 179.162 404.14 178.396 402.877 177.875C401.614 177.353 400.26 177.086 398.893 177.089H398.91Z" fill="#333333"/>
<path d="M131.793 214.922H125.408L124.612 209.404C122.026 208.884 119.57 207.856 117.383 206.382L112.938 209.697L108.433 205.21L111.772 200.747C110.318 198.548 109.307 196.087 108.796 193.501L103.302 192.71V186.355L108.82 185.558C109.354 182.973 110.393 180.519 111.877 178.336L108.539 173.89L113.043 169.38L117.506 172.731C119.704 171.264 122.171 170.247 124.764 169.737L125.56 164.231H131.928L132.724 169.761C135.309 170.282 137.765 171.314 139.946 172.795L144.392 169.462L148.902 173.972L145.552 178.436C147.014 180.63 148.025 183.093 148.528 185.681L154.034 186.478V192.839L148.463 193.636C147.947 196.222 146.924 198.681 145.452 200.87L148.785 205.316L144.275 209.82L139.812 206.475C137.617 207.94 135.151 208.952 132.56 209.451L131.793 214.922ZM126.111 214.131H131.148L131.945 208.742L132.232 208.695C134.909 208.215 137.452 207.17 139.695 205.632L139.923 205.474L144.293 208.742L147.807 205.228L144.544 200.882L144.703 200.641C146.255 198.406 147.315 195.866 147.813 193.191L147.872 192.915L153.272 192.119V187.134L147.883 186.337L147.831 186.05C147.348 183.374 146.304 180.831 144.767 178.588L144.609 178.354L147.883 173.99L144.369 170.475L139.993 173.709L139.759 173.545C137.524 171.999 134.99 170.939 132.32 170.434L132.039 170.388L131.242 164.981H126.199L125.402 170.364L125.127 170.423C122.45 170.903 119.906 171.947 117.665 173.486L117.424 173.644L113.055 170.364L109.54 173.879L112.803 178.231L112.633 178.471C111.083 180.703 110.025 183.238 109.529 185.91L109.476 186.185L104.075 186.982V191.978L109.458 192.775L109.505 193.05C109.989 195.726 111.033 198.269 112.569 200.513L112.727 200.753L109.458 205.122L112.973 208.637L117.325 205.374L117.553 205.538C119.788 207.091 122.328 208.149 125.004 208.643L125.279 208.695L126.111 214.131ZM128.665 203.787C125.86 203.789 123.117 202.96 120.784 201.403C118.45 199.846 116.631 197.633 115.556 195.042C114.48 192.452 114.198 189.6 114.743 186.849C115.288 184.097 116.637 181.569 118.62 179.585C120.602 177.6 123.128 176.248 125.879 175.699C128.63 175.15 131.481 175.43 134.073 176.502C136.665 177.574 138.881 179.39 140.441 181.722C142 184.053 142.833 186.795 142.834 189.6V189.6C142.822 193.352 141.324 196.946 138.669 199.597C136.014 202.248 132.417 203.74 128.665 203.746V203.787ZM128.665 176.257C126.017 176.254 123.428 177.037 121.226 178.507C119.023 179.976 117.306 182.066 116.291 184.511C115.276 186.956 115.01 189.648 115.525 192.245C116.04 194.842 117.314 197.228 119.185 199.101C121.056 200.974 123.441 202.25 126.038 202.767C128.634 203.285 131.326 203.02 133.772 202.008C136.219 200.995 138.31 199.279 139.781 197.078C141.252 194.877 142.038 192.289 142.038 189.641V189.641C142.041 187.882 141.697 186.14 141.027 184.515C140.356 182.889 139.372 181.411 138.13 180.166C136.888 178.921 135.413 177.933 133.789 177.258C132.165 176.583 130.424 176.235 128.665 176.233V176.257Z" fill="#333333"/>
<path d="M106.904 173.135H102.746L102.26 169.737C100.741 169.424 99.2941 168.828 97.9953 167.98L95.2598 170.03L92.3311 167.061L94.3812 164.319C93.5305 163.018 92.9342 161.567 92.624 160.043L89.2442 159.563V155.398L92.6298 154.912C92.9574 153.393 93.5631 151.947 94.4164 150.648L92.3721 147.971L95.3008 145.042L98.0421 147.104C99.3465 146.255 100.799 145.659 102.324 145.347L102.81 141.967H106.963L107.449 145.359C108.969 145.67 110.416 146.267 111.713 147.116L114.42 145.037L117.348 147.965L115.292 150.707C116.139 152.01 116.735 153.46 117.05 154.982L120.429 155.469V159.622L117.032 160.102C116.717 161.624 116.122 163.074 115.275 164.378L117.319 167.107L114.431 170.036L111.684 167.974C110.378 168.821 108.926 169.417 107.402 169.732L106.904 173.135ZM103.437 172.338H106.213L106.676 169.076L106.963 169.023C108.571 168.729 110.099 168.103 111.45 167.184L111.684 167.014L114.326 169.005L116.294 167.037L114.32 164.407L114.478 164.167C115.414 162.824 116.051 161.296 116.347 159.686L116.405 159.411L119.68 158.942V156.166L116.411 155.697L116.364 155.416C116.076 153.804 115.447 152.273 114.519 150.923L114.361 150.683L116.341 148.041L114.373 146.079L111.743 148.059L111.503 147.889C110.158 146.956 108.631 146.319 107.022 146.021L106.746 145.968L106.278 142.694H103.501L103.039 145.956L102.752 146.015C101.143 146.303 99.6144 146.928 98.2647 147.848L98.0246 148.012L95.3828 146.026L93.4206 147.995L95.3946 150.625L95.2364 150.865C94.3001 152.208 93.6611 153.736 93.362 155.346L93.3093 155.621L90.0408 156.095V158.872L93.3034 159.34L93.3503 159.616C93.6399 161.229 94.2688 162.762 95.1954 164.114L95.3536 164.343L93.3737 166.99L95.3301 168.958L97.9601 166.979L98.2003 167.143C99.5422 168.08 101.071 168.718 102.681 169.011L102.957 169.058L103.437 172.338ZM104.878 166.317C103.141 166.322 101.442 165.813 99.9946 164.854C98.5472 163.895 97.4165 162.528 96.7453 160.927C96.0742 159.325 95.8926 157.56 96.2236 155.856C96.5546 154.151 97.3833 152.583 98.605 151.349C99.8267 150.115 101.387 149.271 103.088 148.923C104.789 148.575 106.555 148.739 108.164 149.394C109.772 150.049 111.15 151.166 112.123 152.604C113.097 154.041 113.623 155.735 113.635 157.472V157.472C113.642 159.805 112.725 162.046 111.084 163.704C109.442 165.362 107.211 166.301 104.878 166.317V166.317ZM104.878 149.535C103.293 149.525 101.741 149.985 100.417 150.857C99.0943 151.73 98.0598 152.975 97.445 154.436C96.8302 155.897 96.6627 157.507 96.9638 159.063C97.2649 160.619 98.0209 162.051 99.1363 163.177C100.252 164.303 101.676 165.073 103.229 165.388C104.782 165.704 106.394 165.552 107.861 164.951C109.327 164.351 110.583 163.328 111.468 162.013C112.353 160.698 112.828 159.151 112.832 157.566V157.472C112.809 155.371 111.963 153.363 110.476 151.879C108.989 150.395 106.979 149.553 104.878 149.535V149.535Z" fill="#333333"/>
<path d="M246.751 116.218H241.327L240.671 111.579C238.527 111.144 236.489 110.292 234.673 109.072L230.913 111.877L227.053 108.017L229.87 104.269C228.658 102.45 227.816 100.409 227.392 98.2647L222.777 97.6028V92.1437L227.392 91.4583C227.828 89.3152 228.677 87.2777 229.894 85.4603L227.1 81.7291L230.971 77.9335L234.72 80.7451C236.547 79.5377 238.593 78.6999 240.742 78.2791L241.403 73.6575H246.851L247.513 78.2966C249.657 78.7297 251.694 79.5795 253.511 80.7978L257.242 77.9335L261.102 81.7877L258.314 85.5189C259.52 87.3419 260.358 89.3836 260.78 91.5286L265.396 92.1905V97.638L260.757 98.3116C260.322 100.45 259.474 102.484 258.261 104.298L261.061 108.041L257.201 111.889L253.452 109.083C251.628 110.291 249.584 111.129 247.437 111.549L246.751 116.218ZM241.977 115.421H246.043L246.687 110.923L246.974 110.87C249.205 110.466 251.325 109.593 253.195 108.31L253.435 108.152L257.084 110.888L260.013 108.006L257.289 104.374L257.453 104.134C258.758 102.276 259.65 100.161 260.071 97.9308L260.13 97.6497L264.64 97.0054V92.9051L260.071 92.255L260.013 91.9797C259.613 89.7445 258.743 87.62 257.459 85.7473L257.301 85.5072L260.007 81.9166L257.142 79.0347L253.505 81.7643L253.271 81.5944C251.406 80.3043 249.29 79.4202 247.062 78.9995L246.775 78.9527L246.13 74.4366H242.065L241.421 78.941L241.134 78.9878C238.894 79.388 236.764 80.2584 234.884 81.5417L234.65 81.7057L230.995 78.9703L228.171 81.8287L230.895 85.472L230.731 85.7005C229.441 87.5673 228.559 89.6849 228.142 91.9152L228.084 92.1905L223.573 92.8349V96.9351L228.066 97.5794L228.125 97.8547C228.524 100.09 229.395 102.214 230.678 104.087L230.837 104.315L228.101 107.971L230.977 110.847L234.615 108.117L234.855 108.281C236.714 109.576 238.829 110.459 241.058 110.87L241.345 110.929L241.977 115.421ZM244.098 106.858C241.737 106.858 239.429 106.157 237.466 104.846C235.503 103.534 233.973 101.67 233.069 99.4884C232.166 97.3071 231.929 94.9069 232.39 92.5912C232.85 90.2756 233.987 88.1485 235.657 86.479C237.326 84.8095 239.453 83.6726 241.769 83.212C244.085 82.7514 246.485 82.9878 248.666 83.8913C250.847 84.7948 252.712 86.3249 254.024 88.288C255.335 90.2511 256.035 92.5591 256.035 94.9201V94.9201C256.035 98.0861 254.778 101.122 252.539 103.361C250.3 105.6 247.264 106.858 244.098 106.858V106.858ZM244.098 83.7851C241.897 83.7851 239.745 84.4378 237.915 85.6607C236.085 86.8836 234.658 88.6217 233.816 90.6553C232.974 92.6889 232.753 94.9266 233.183 97.0854C233.612 99.2443 234.672 101.227 236.228 102.784C237.785 104.34 239.768 105.4 241.927 105.83C244.086 106.259 246.323 106.039 248.357 105.196C250.39 104.354 252.129 102.927 253.351 101.097C254.574 99.2671 255.227 97.1154 255.227 94.9142C255.227 91.9626 254.055 89.1319 251.967 87.0447C249.88 84.9576 247.05 83.7851 244.098 83.7851V83.7851Z" fill="#333333"/>
<path d="M367.737 295.509H256.744L255.661 294.425L255.069 293.839H219.514L219.157 294.425L218.29 295.831H106.799L151.421 245.996L322.892 245.99L367.737 295.509Z" fill="#0066CC"/>
<path opacity="0.4" d="M367.737 295.509H256.744L255.661 294.425L255.069 293.839H219.514L219.157 294.425L218.29 295.831H106.799L151.421 245.996L322.892 245.99L367.737 295.509Z" fill="white"/>
<path d="M106.805 295.802V298.976C106.803 299.251 106.856 299.524 106.96 299.778C107.064 300.032 107.218 300.264 107.412 300.458C107.605 300.653 107.836 300.808 108.089 300.914C108.343 301.019 108.615 301.073 108.89 301.073H364.773C365.554 301.075 366.303 300.768 366.858 300.219C367.414 299.671 367.729 298.925 367.737 298.145V295.532H256.744L255.069 293.857H219.52L218.29 295.843L106.805 295.802Z" fill="#333333"/>
<path d="M154.18 133.445H320.315C321.047 133.445 321.749 133.735 322.266 134.253C322.783 134.77 323.074 135.472 323.074 136.203V246.013H151.45V136.209C151.449 135.482 151.735 134.783 152.246 134.265C152.757 133.747 153.452 133.452 154.18 133.445V133.445Z" fill="#333333"/>
<path d="M319.126 140.011H155.281C154.912 140.011 154.613 140.31 154.613 140.679V241.626C154.613 241.995 154.912 242.294 155.281 242.294H319.126C319.495 242.294 319.794 241.995 319.794 241.626V140.679C319.794 140.31 319.495 140.011 319.126 140.011Z" fill="white"/>
<path d="M309.403 145.042V234.392C309.403 234.607 309.362 234.82 309.28 235.018C309.198 235.217 309.078 235.397 308.926 235.549C308.774 235.701 308.593 235.822 308.395 235.903C308.196 235.985 307.983 236.027 307.768 236.026H166.715C166.501 236.026 166.288 235.984 166.09 235.902C165.893 235.82 165.713 235.699 165.561 235.547C165.41 235.395 165.29 235.215 165.209 235.017C165.127 234.819 165.086 234.606 165.087 234.392V145.042C165.088 144.612 165.26 144.199 165.566 143.895C165.871 143.591 166.284 143.42 166.715 143.42H307.768C308.2 143.42 308.614 143.59 308.92 143.894C309.226 144.198 309.4 144.611 309.403 145.042Z" fill="#0066CC"/>
<path opacity="0.4" d="M309.403 145.042V148.949H165.087V145.042C165.088 144.612 165.26 144.199 165.566 143.895C165.871 143.591 166.284 143.42 166.715 143.42H307.768C308.2 143.42 308.614 143.59 308.92 143.894C309.226 144.198 309.4 144.611 309.403 145.042Z" fill="white"/>
<path d="M167.459 146.887C167.986 146.887 168.414 146.46 168.414 145.933C168.414 145.405 167.986 144.978 167.459 144.978C166.932 144.978 166.504 145.405 166.504 145.933C166.504 146.46 166.932 146.887 167.459 146.887Z" fill="#0066CC"/>
<path d="M171.219 146.887C171.747 146.887 172.174 146.46 172.174 145.933C172.174 145.405 171.747 144.978 171.219 144.978C170.692 144.978 170.265 145.405 170.265 145.933C170.265 146.46 170.692 146.887 171.219 146.887Z" fill="#333333"/>
<path d="M174.652 146.887C175.179 146.887 175.607 146.46 175.607 145.933C175.607 145.405 175.179 144.978 174.652 144.978C174.125 144.978 173.697 145.405 173.697 145.933C173.697 146.46 174.125 146.887 174.652 146.887Z" fill="white"/>
<path opacity="0.4" d="M180.679 155.152H177.434C177.344 155.152 177.27 155.226 177.27 155.316V158.561C177.27 158.652 177.344 158.725 177.434 158.725H180.679C180.77 158.725 180.843 158.652 180.843 158.561V155.316C180.843 155.226 180.77 155.152 180.679 155.152Z" fill="white"/>
<path opacity="0.75" d="M187.907 155.152H183.11C183.019 155.152 182.946 155.226 182.946 155.316V158.561C182.946 158.652 183.019 158.725 183.11 158.725H187.907C187.998 158.725 188.071 158.652 188.071 158.561V155.316C188.071 155.226 187.998 155.152 187.907 155.152Z" fill="white"/>
<path d="M180.679 175.788H177.434C177.344 175.788 177.27 175.862 177.27 175.952V179.197C177.27 179.288 177.344 179.361 177.434 179.361H180.679C180.77 179.361 180.843 179.288 180.843 179.197V175.952C180.843 175.862 180.77 175.788 180.679 175.788Z" fill="white"/>
<path d="M187.907 175.788H183.11C183.019 175.788 182.946 175.862 182.946 175.952V179.197C182.946 179.288 183.019 179.361 183.11 179.361H187.907C187.998 179.361 188.071 179.288 188.071 179.197V175.952C188.071 175.862 187.998 175.788 187.907 175.788Z" fill="#333333"/>
<path opacity="0.4" d="M180.679 182.595H177.434C177.344 182.595 177.27 182.668 177.27 182.759V186.004C177.27 186.094 177.344 186.168 177.434 186.168H180.679C180.77 186.168 180.843 186.094 180.843 186.004V182.759C180.843 182.668 180.77 182.595 180.679 182.595Z" fill="white"/>
<path d="M196.518 182.595H189.688C189.597 182.595 189.524 182.668 189.524 182.759V186.004C189.524 186.094 189.597 186.168 189.688 186.168H196.518C196.608 186.168 196.682 186.094 196.682 186.004V182.759C196.682 182.668 196.608 182.595 196.518 182.595Z" fill="white"/>
<path d="M180.679 189.723H177.434C177.344 189.723 177.27 189.797 177.27 189.887V193.132C177.27 193.223 177.344 193.296 177.434 193.296H180.679C180.77 193.296 180.843 193.223 180.843 193.132V189.887C180.843 189.797 180.77 189.723 180.679 189.723Z" fill="white"/>
<path opacity="0.75" d="M192.5 189.723H185.67C185.579 189.723 185.506 189.797 185.506 189.887V193.132C185.506 193.223 185.579 193.296 185.67 193.296H192.5C192.59 193.296 192.664 193.223 192.664 193.132V189.887C192.664 189.797 192.59 189.723 192.5 189.723Z" fill="white"/>
<g opacity="0.4">
<path d="M180.679 217.259H177.434C177.344 217.259 177.27 217.332 177.27 217.423V220.668C177.27 220.759 177.344 220.832 177.434 220.832H180.679C180.77 220.832 180.843 220.759 180.843 220.668V217.423C180.843 217.332 180.77 217.259 180.679 217.259Z" fill="white"/>
<path d="M192.5 217.259H185.67C185.579 217.259 185.506 217.332 185.506 217.423V220.668C185.506 220.759 185.579 220.832 185.67 220.832H192.5C192.59 220.832 192.664 220.759 192.664 220.668V217.423C192.664 217.332 192.59 217.259 192.5 217.259Z" fill="white"/>
</g>
<g opacity="0.4">
<path d="M180.679 224.083H177.434C177.344 224.083 177.27 224.156 177.27 224.247V227.492C177.27 227.583 177.344 227.656 177.434 227.656H180.679C180.77 227.656 180.843 227.583 180.843 227.492V224.247C180.843 224.156 180.77 224.083 180.679 224.083Z" fill="white"/>
<path d="M192.5 224.083H185.67C185.579 224.083 185.506 224.156 185.506 224.247V227.492C185.506 227.583 185.579 227.656 185.67 227.656H192.5C192.59 227.656 192.664 227.583 192.664 227.492V224.247C192.664 224.156 192.59 224.083 192.5 224.083Z" fill="white"/>
</g>
<path d="M180.679 231.329H177.434C177.344 231.329 177.27 231.402 177.27 231.493V234.738C177.27 234.828 177.344 234.902 177.434 234.902H180.679C180.77 234.902 180.843 234.828 180.843 234.738V231.493C180.843 231.402 180.77 231.329 180.679 231.329Z" fill="white"/>
<path d="M187.948 231.329H183.098C183.008 231.329 182.934 231.402 182.934 231.493V234.738C182.934 234.828 183.008 234.902 183.098 234.902H187.948C188.039 234.902 188.112 234.828 188.112 234.738V231.493C188.112 231.402 188.039 231.329 187.948 231.329Z" fill="#333333"/>
<path opacity="0.4" d="M180.679 196.424H177.434C177.344 196.424 177.27 196.497 177.27 196.588V199.833C177.27 199.924 177.344 199.997 177.434 199.997H180.679C180.77 199.997 180.843 199.924 180.843 199.833V196.588C180.843 196.497 180.77 196.424 180.679 196.424Z" fill="white"/>
<path d="M192.5 196.424H185.67C185.579 196.424 185.506 196.497 185.506 196.588V199.833C185.506 199.924 185.579 199.997 185.67 199.997H192.5C192.59 199.997 192.664 199.924 192.664 199.833V196.588C192.664 196.497 192.59 196.424 192.5 196.424Z" fill="white"/>
<path opacity="0.75" d="M215.467 196.424H194.438C194.348 196.424 194.274 196.497 194.274 196.588V199.833C194.274 199.924 194.348 199.997 194.438 199.997H215.467C215.557 199.997 215.631 199.924 215.631 199.833V196.588C215.631 196.497 215.557 196.424 215.467 196.424Z" fill="white"/>
<path d="M238.615 196.424H217.587C217.496 196.424 217.423 196.497 217.423 196.588V199.833C217.423 199.924 217.496 199.997 217.587 199.997H238.615C238.706 199.997 238.779 199.924 238.779 199.833V196.588C238.779 196.497 238.706 196.424 238.615 196.424Z" fill="#333333"/>
<path opacity="0.75" d="M251.625 196.424H240.742C240.651 196.424 240.578 196.497 240.578 196.588V199.833C240.578 199.924 240.651 199.997 240.742 199.997H251.625C251.715 199.997 251.789 199.924 251.789 199.833V196.588C251.789 196.497 251.715 196.424 251.625 196.424Z" fill="white"/>
<g opacity="0.4">
<path d="M180.679 203.547H177.434C177.344 203.547 177.27 203.62 177.27 203.711V206.956C177.27 207.046 177.344 207.12 177.434 207.12H180.679C180.77 207.12 180.843 207.046 180.843 206.956V203.711C180.843 203.62 180.77 203.547 180.679 203.547Z" fill="white"/>
<path d="M192.5 203.547H185.67C185.579 203.547 185.506 203.62 185.506 203.711V206.956C185.506 207.046 185.579 207.12 185.67 207.12H192.5C192.59 207.12 192.664 207.046 192.664 206.956V203.711C192.664 203.62 192.59 203.547 192.5 203.547Z" fill="white"/>
<path d="M215.467 203.547H194.438C194.348 203.547 194.274 203.62 194.274 203.711V206.956C194.274 207.046 194.348 207.12 194.438 207.12H215.467C215.557 207.12 215.631 207.046 215.631 206.956V203.711C215.631 203.62 215.557 203.547 215.467 203.547Z" fill="white"/>
<path d="M238.615 203.547H217.587C217.496 203.547 217.423 203.62 217.423 203.711V206.956C217.423 207.046 217.496 207.12 217.587 207.12H238.615C238.706 207.12 238.779 207.046 238.779 206.956V203.711C238.779 203.62 238.706 203.547 238.615 203.547Z" fill="white"/>
<path d="M251.625 203.547H240.742C240.651 203.547 240.578 203.62 240.578 203.711V206.956C240.578 207.046 240.651 207.12 240.742 207.12H251.625C251.715 207.12 251.789 207.046 251.789 206.956V203.711C251.789 203.62 251.715 203.547 251.625 203.547Z" fill="white"/>
</g>
<path d="M180.679 210.136H177.434C177.344 210.136 177.27 210.21 177.27 210.3V213.545C177.27 213.636 177.344 213.709 177.434 213.709H180.679C180.77 213.709 180.843 213.636 180.843 213.545V210.3C180.843 210.21 180.77 210.136 180.679 210.136Z" fill="white"/>
<path opacity="0.75" d="M192.5 210.136H185.67C185.579 210.136 185.506 210.21 185.506 210.3V213.545C185.506 213.636 185.579 213.709 185.67 213.709H192.5C192.59 213.709 192.664 213.636 192.664 213.545V210.3C192.664 210.21 192.59 210.136 192.5 210.136Z" fill="white"/>
<path d="M215.467 210.136H194.438C194.348 210.136 194.274 210.21 194.274 210.3V213.545C194.274 213.636 194.348 213.709 194.438 213.709H215.467C215.557 213.709 215.631 213.636 215.631 213.545V210.3C215.631 210.21 215.557 210.136 215.467 210.136Z" fill="#333333"/>
<path d="M238.615 210.136H217.587C217.496 210.136 217.423 210.21 217.423 210.3V213.545C217.423 213.636 217.496 213.709 217.587 213.709H238.615C238.706 213.709 238.779 213.636 238.779 213.545V210.3C238.779 210.21 238.706 210.136 238.615 210.136Z" fill="white"/>
<path d="M251.625 210.136H240.742C240.651 210.136 240.578 210.21 240.578 210.3V213.545C240.578 213.636 240.651 213.709 240.742 213.709H251.625C251.715 213.709 251.789 213.636 251.789 213.545V210.3C251.789 210.21 251.715 210.136 251.625 210.136Z" fill="#333333"/>
<path d="M230.292 155.152H189.606C189.515 155.152 189.442 155.226 189.442 155.316V158.561C189.442 158.652 189.515 158.725 189.606 158.725H230.292C230.382 158.725 230.456 158.652 230.456 158.561V155.316C230.456 155.226 230.382 155.152 230.292 155.152Z" fill="#333333"/>
<path opacity="0.4" d="M180.679 161.871H177.434C177.344 161.871 177.27 161.944 177.27 162.035V165.28C177.27 165.371 177.344 165.444 177.434 165.444H180.679C180.77 165.444 180.843 165.371 180.843 165.28V162.035C180.843 161.944 180.77 161.871 180.679 161.871Z" fill="white"/>
<path opacity="0.75" d="M192.687 161.871H186.355C186.264 161.871 186.191 161.944 186.191 162.035V165.28C186.191 165.371 186.264 165.444 186.355 165.444H192.687C192.778 165.444 192.851 165.371 192.851 165.28V162.035C192.851 161.944 192.778 161.871 192.687 161.871Z" fill="white"/>
<path opacity="0.75" d="M251.625 161.871H242.329C242.238 161.871 242.165 161.944 242.165 162.035V165.28C242.165 165.371 242.238 165.444 242.329 165.444H251.625C251.715 165.444 251.789 165.371 251.789 165.28V162.035C251.789 161.944 251.715 161.871 251.625 161.871Z" fill="white"/>
<path d="M276.87 161.871H253.722C253.631 161.871 253.558 161.944 253.558 162.035V165.28C253.558 165.371 253.631 165.444 253.722 165.444H276.87C276.961 165.444 277.034 165.371 277.034 165.28V162.035C277.034 161.944 276.961 161.871 276.87 161.871Z" fill="#333333"/>
<path d="M240.408 161.871H194.438C194.348 161.871 194.274 161.944 194.274 162.035V165.28C194.274 165.371 194.348 165.444 194.438 165.444H240.408C240.498 165.444 240.572 165.371 240.572 165.28V162.035C240.572 161.944 240.498 161.871 240.408 161.871Z" fill="white"/>
<path opacity="0.4" d="M180.679 168.988H177.434C177.344 168.988 177.27 169.061 177.27 169.152V172.397C177.27 172.487 177.344 172.561 177.434 172.561H180.679C180.77 172.561 180.843 172.487 180.843 172.397V169.152C180.843 169.061 180.77 168.988 180.679 168.988Z" fill="white"/>
<path opacity="0.75" d="M192.687 168.988H186.355C186.264 168.988 186.191 169.061 186.191 169.152V172.397C186.191 172.487 186.264 172.561 186.355 172.561H192.687C192.778 172.561 192.851 172.487 192.851 172.397V169.152C192.851 169.061 192.778 168.988 192.687 168.988Z" fill="white"/>
<path opacity="0.75" d="M251.625 168.988H242.329C242.238 168.988 242.165 169.061 242.165 169.152V172.397C242.165 172.487 242.238 172.561 242.329 172.561H251.625C251.715 172.561 251.789 172.487 251.789 172.397V169.152C251.789 169.061 251.715 168.988 251.625 168.988Z" fill="white"/>
<path d="M276.87 168.988H253.722C253.631 168.988 253.558 169.061 253.558 169.152V172.397C253.558 172.487 253.631 172.561 253.722 172.561H276.87C276.961 172.561 277.034 172.487 277.034 172.397V169.152C277.034 169.061 276.961 168.988 276.87 168.988Z" fill="white"/>
<path d="M240.408 168.988H194.438C194.348 168.988 194.274 169.061 194.274 169.152V172.397C194.274 172.487 194.348 172.561 194.438 172.561H240.408C240.498 172.561 240.572 172.487 240.572 172.397V169.152C240.572 169.061 240.498 168.988 240.408 168.988Z" fill="#333333"/>
<path opacity="0.2" d="M237.292 138.775C238.243 138.775 239.014 138.004 239.014 137.053C239.014 136.102 238.243 135.331 237.292 135.331C236.34 135.331 235.569 136.102 235.569 137.053C235.569 138.004 236.34 138.775 237.292 138.775Z" fill="black"/>
<path d="M403.919 232.576V285.364C403.916 285.998 403.661 286.605 403.211 287.052C402.761 287.499 402.151 287.749 401.517 287.748H370.133C369.819 287.748 369.508 287.687 369.218 287.568C368.928 287.449 368.664 287.273 368.441 287.052C368.219 286.83 368.042 286.567 367.921 286.278C367.8 285.988 367.738 285.678 367.737 285.364V232.576H368.018C369.512 233.431 376.927 234.087 385.831 234.087C394.734 234.087 402.144 233.431 403.637 232.576H403.919Z" fill="#0066CC"/>
<path opacity="0.2" d="M403.919 239.289V285.364C403.916 285.998 403.661 286.605 403.211 287.052C402.761 287.499 402.151 287.749 401.517 287.748H370.133C369.819 287.748 369.508 287.687 369.218 287.568C368.928 287.449 368.664 287.273 368.441 287.052C368.219 286.83 368.042 286.567 367.921 286.278C367.8 285.988 367.738 285.678 367.737 285.364V283.22C372.816 283.923 390.031 285.323 397.552 273.122C398.158 272.117 398.67 271.058 399.08 269.959C400.65 265.864 403.907 255.526 403.919 239.289Z" fill="black"/>
<path d="M404.405 239.289C404.243 239.28 404.081 239.28 403.919 239.289V246.013C404.081 246.004 404.243 246.004 404.405 246.013C410.438 246.013 415.341 251.133 415.341 257.435C415.341 263.738 410.438 268.857 404.405 268.857C404.235 268.857 404.083 268.857 403.919 268.857V275.535C404.083 275.535 404.235 275.535 404.405 275.535C413.988 275.535 421.76 267.422 421.76 257.377C421.76 247.331 413.988 239.289 404.405 239.289Z" fill="#0066CC"/>
<path opacity="0.4" d="M403.919 239.306V246.013C403.919 246.013 407.064 245.937 408.851 246.991V239.892C407.238 239.487 405.581 239.29 403.919 239.306V239.306Z" fill="white"/>
<path opacity="0.4" d="M403.919 268.822V275.535C403.919 275.535 407.082 275.576 408.968 274.914L408.587 267.967C407.116 268.603 405.52 268.896 403.919 268.822V268.822Z" fill="white"/>
<path d="M377.701 233.853H376.424V252.205H377.701V233.853Z" fill="white"/>
<path opacity="0.4" d="M282.406 294.425H255.661L255.075 293.839H219.52L219.163 294.425H191.773C191.649 294.421 191.527 294.388 191.418 294.327C191.309 294.267 191.216 294.181 191.147 294.077C191.079 293.973 191.036 293.854 191.022 293.73C191.009 293.606 191.025 293.481 191.07 293.365L197.742 275.752L277.087 275.793L283.12 293.365C283.167 293.482 283.185 293.609 283.171 293.734C283.158 293.859 283.114 293.98 283.043 294.084C282.973 294.189 282.878 294.274 282.767 294.334C282.656 294.393 282.532 294.425 282.406 294.425V294.425Z" fill="white"/>
<path d="M372.464 259.485V254.214C372.464 253.955 372.522 253.7 372.632 253.466C372.743 253.232 372.903 253.025 373.103 252.861L376.74 249.85C376.832 249.776 376.947 249.736 377.065 249.736C377.183 249.736 377.298 249.776 377.39 249.85L381.373 253.001C381.582 253.166 381.75 253.376 381.866 253.616C381.982 253.855 382.042 254.118 382.041 254.384V259.485C382.041 259.578 382.023 259.669 381.988 259.754C381.952 259.84 381.9 259.917 381.835 259.982C381.77 260.048 381.692 260.099 381.607 260.135C381.522 260.17 381.43 260.188 381.338 260.188H373.167C372.981 260.188 372.802 260.114 372.67 259.982C372.538 259.851 372.464 259.672 372.464 259.485V259.485Z" fill="#333333"/>
<path d="M197.549 252.322H277.321" stroke="white" stroke-width="0.25" stroke-miterlimit="10"/>
<path d="M206.733 256.352H268.137" stroke="white" stroke-width="0.25" stroke-miterlimit="10"/>
<path d="M210.248 260.095H264.622" stroke="white" stroke-width="0.25" stroke-miterlimit="10"/>
<path d="M190.543 265.126H284.333" stroke="white" stroke-width="0.25" stroke-miterlimit="10"/>
<path d="M208.385 270.439H266.555" stroke="white" stroke-width="0.25" stroke-miterlimit="10"/>
<path d="M192.283 269.648L195.422 260.68" stroke="white" stroke-width="0.25" stroke-miterlimit="10"/>
<path d="M207.454 252.322L203.881 265.167" stroke="white" stroke-width="0.25" stroke-miterlimit="10"/>
<path d="M211.296 256.352L210.746 260.095" stroke="white" stroke-width="0.25" stroke-miterlimit="10"/>
<path d="M215.894 252.322L215.174 256.352" stroke="white" stroke-width="0.25" stroke-miterlimit="10"/>
<path d="M214.418 260.095L213.522 265.126" stroke="white" stroke-width="0.25" stroke-miterlimit="10"/>
<path d="M223.275 265.126L223.755 260.095" stroke="white" stroke-width="0.25" stroke-miterlimit="10"/>
<path d="M220.153 256.352L219.737 260.095" stroke="white" stroke-width="0.25" stroke-miterlimit="10"/>
<path d="M224.762 252.322L224.552 256.352" stroke="white" stroke-width="0.25" stroke-miterlimit="10"/>
<path d="M233.783 252.497L233.578 256.533" stroke="white" stroke-width="0.25" stroke-miterlimit="10"/>
<path d="M229.296 256.352V260.095" stroke="white" stroke-width="0.25" stroke-miterlimit="10"/>
<path d="M238.539 256.352V260.095" stroke="white" stroke-width="0.25" stroke-miterlimit="10"/>
<path d="M233.191 260.095V265.126" stroke="white" stroke-width="0.25" stroke-miterlimit="10"/>
<path d="M243.12 260.095V265.126" stroke="white" stroke-width="0.25" stroke-miterlimit="10"/>
<path d="M252.48 260.095V265.126" stroke="white" stroke-width="0.25" stroke-miterlimit="10"/>
<path d="M261.407 260.165L262.285 270.439" stroke="white" stroke-width="0.25" stroke-miterlimit="10"/>
<path d="M271.517 260.346L272.952 270.439" stroke="white" stroke-width="0.25" stroke-miterlimit="10"/>
<path d="M280.742 260.212L283.167 270.439" stroke="white" stroke-width="0.25" stroke-miterlimit="10"/>
<path d="M247.993 260.095L247.7 256.352" stroke="white" stroke-width="0.25" stroke-miterlimit="10"/>
<path d="M256.967 256.352L257.552 260.095" stroke="white" stroke-width="0.25" stroke-miterlimit="10"/>
<path d="M242.628 252.322V256.352" stroke="white" stroke-width="0.25" stroke-miterlimit="10"/>
<path d="M251.379 252.322V256.352" stroke="white" stroke-width="0.25" stroke-miterlimit="10"/>
<path d="M260.358 252.322V256.352" stroke="white" stroke-width="0.25" stroke-miterlimit="10"/>
<path d="M269.016 252.322V256.352" stroke="white" stroke-width="0.25" stroke-miterlimit="10"/>
<path d="M403.919 232.26C403.919 232.36 403.825 232.477 403.637 232.576C402.144 233.431 394.728 234.088 385.831 234.088C376.933 234.088 369.512 233.431 368.018 232.576C367.825 232.477 367.737 232.36 367.737 232.26C367.737 231.252 375.838 230.432 385.831 230.432C395.824 230.432 403.919 231.252 403.919 232.26Z" fill="#0066CC"/>
<path d="M385.245 234.082C394.08 234.082 401.242 233.439 401.242 232.647C401.242 231.854 394.08 231.211 385.245 231.211C376.41 231.211 369.248 231.854 369.248 232.647C369.248 233.439 376.41 234.082 385.245 234.082Z" fill="white"/>
<path d="M324.298 58.3813C315.214 58.3824 306.339 61.1033 298.815 66.1933C291.291 71.2833 285.463 78.5094 282.083 86.9408C278.702 95.3721 277.923 104.623 279.846 113.501C281.769 122.379 286.306 130.477 292.873 136.754L286.395 148.844L302.309 143.689C308.386 147.05 315.151 148.974 322.087 149.316C329.023 149.658 335.944 148.407 342.322 145.66C348.7 142.913 354.364 138.743 358.881 133.468C363.397 128.194 366.647 121.956 368.38 115.232C370.113 108.507 370.284 101.476 368.88 94.6752C367.476 87.8747 364.533 81.4859 360.278 75.9983C356.023 70.5107 350.568 66.07 344.332 63.0163C338.095 59.9627 331.242 58.3772 324.298 58.3813V58.3813Z" fill="#333333"/>
<path d="M322.16 55.1362C313.076 55.1368 304.2 57.8568 296.676 62.9459C289.151 68.0351 283.322 75.2604 279.94 83.6912C276.557 92.1221 275.776 101.373 277.697 110.251C279.618 119.13 284.153 127.23 290.717 133.509L284.245 145.593L300.154 140.444C306.231 143.809 312.997 145.737 319.935 146.082C326.872 146.426 333.797 145.178 340.177 142.432C346.558 139.687 352.225 135.517 356.744 130.242C361.264 124.968 364.516 118.728 366.251 112.002C367.986 105.277 368.158 98.2427 366.754 91.44C365.35 84.6373 362.407 78.2464 358.151 72.757C353.895 67.2676 348.438 62.8255 342.2 59.7712C335.961 56.7168 329.106 55.1314 322.16 55.1362V55.1362Z" fill="white"/>
<path d="M322.16 146.53C314.443 146.524 306.852 144.578 300.083 140.872L284.374 145.974C284.297 145.998 284.215 145.999 284.137 145.976C284.06 145.953 283.991 145.907 283.94 145.845C283.892 145.783 283.861 145.708 283.853 145.629C283.845 145.55 283.859 145.471 283.893 145.4L290.261 133.585C282.616 126.173 277.786 116.332 276.6 105.75C275.414 95.1678 277.944 84.5023 283.758 75.5809C289.571 66.6595 298.307 60.0374 308.467 56.8491C318.627 53.6609 329.579 54.105 339.448 58.1052C349.316 62.1055 357.487 69.4131 362.559 78.7759C367.632 88.1387 369.29 98.974 367.251 109.425C365.212 119.877 359.602 129.294 351.382 136.063C343.162 142.833 332.844 146.533 322.195 146.53H322.16ZM300.13 140.046C300.198 140.046 300.264 140.062 300.324 140.093C310.365 145.663 322.15 147.202 333.285 144.397C344.42 141.592 354.07 134.654 360.274 124.991C366.477 115.328 368.77 103.666 366.686 92.3737C364.601 81.0816 358.297 71.0063 349.052 64.1949C339.808 57.3834 328.317 54.3467 316.914 55.7015C305.511 57.0564 295.052 62.7013 287.661 71.4893C280.27 80.2774 276.502 91.5495 277.122 103.016C277.742 114.482 282.703 125.282 290.999 133.222C291.061 133.281 291.103 133.359 291.115 133.444C291.128 133.529 291.112 133.616 291.069 133.691L285.065 144.908L300.007 140.064L300.13 140.046Z" fill="#333333"/>
<path d="M306.931 119.387L289.429 107.039V100.491L306.931 88.0259V94.6272L294.396 103.736L306.931 112.844V119.387Z" fill="#0066CC"/>
<path d="M312.249 121.589L325.575 72.0468H331.263L317.873 121.572L312.249 121.589Z" fill="#0066CC"/>
<path d="M336.575 119.387V112.844L349.169 103.677L336.575 94.6331V88.0259L354.148 100.438V106.975L336.575 119.387Z" fill="#0066CC"/>
<path d="M309.098 116.675L291.596 104.327V97.7844L309.098 85.3139V91.9152L296.557 101.024L309.098 110.12V116.675Z" fill="#333333"/>
<path d="M314.411 118.906L327.737 69.3875H333.424L320.034 118.906H314.411Z" fill="#333333"/>
<path d="M338.743 116.675V110.12L351.348 100.959L338.743 91.9035V85.3139L356.315 97.72V104.263L338.743 116.675Z" fill="#333333"/>
<path d="M171.173 288.884C171.232 289.356 171.166 289.835 170.979 290.272C170.793 290.71 170.494 291.09 170.112 291.373C166.182 294.361 153.05 307.593 139.244 358.043H75.7604C88.5765 320.555 128.753 279.43 136.151 272.067C136.916 271.302 137.94 270.851 139.021 270.802C142.582 270.65 151.07 270.638 158.45 273.543C164.7 276.021 170.165 280.572 171.173 288.884Z" fill="#0066CC"/>
<path d="M211.296 274.387C211.296 281.586 198.703 279.916 198.703 279.916C193.302 279.659 189.969 281.316 189.969 281.316C181.868 283.893 170.458 285.463 170.458 285.463C170.46 285.448 170.46 285.432 170.458 285.416C169.651 283.01 168.346 280.8 166.627 278.932C166.537 278.824 166.439 278.722 166.334 278.628C158.052 270.035 142.828 270.738 142.828 270.738L159.393 258.314C159.393 258.314 160.348 258.05 161.625 255.215C161.625 255.215 163.64 250.108 166.194 250.108H170.751C170.751 250.108 174.939 242.364 178.219 244.455C179.231 245.091 180.153 245.859 180.96 246.74C180.96 246.74 187.339 240.179 192.447 244.982C192.447 244.982 196.635 250.084 197.549 252.281C199.333 252.131 201.121 252.523 202.68 253.405C205.401 255.039 207.848 257.09 209.931 259.485C210.082 259.653 210.191 259.853 210.248 260.071C210.321 260.287 210.339 260.518 210.301 260.743C210.263 260.968 210.171 261.18 210.031 261.36C207.161 264.997 202.17 260.235 202.17 260.235C199.083 260.874 194.21 260.622 194.21 260.622C192.154 264.986 186.373 267.944 186.373 267.944C192.816 270.767 197.285 269.478 197.285 269.478C207.635 267.586 210.365 271.558 211.056 273.444C211.171 273.748 211.252 274.064 211.296 274.387Z" fill="#F9B499"/>
<path d="M183.145 252.497L195.996 252.041C195.996 252.041 192.81 246.394 189.553 247.027C189.571 247.027 186.337 247.665 183.145 252.497Z" fill="#F7A48B"/>
<path d="M210.031 261.383C207.161 265.021 202.17 260.259 202.17 260.259C199.083 260.897 194.21 260.645 194.21 260.645C192.154 265.009 186.373 267.967 186.373 267.967C185.153 267.58 184.046 266.902 183.145 265.993C183.145 265.993 192.716 263.896 193.355 259.058C193.355 259.058 199.915 260.229 201.93 257.605C201.93 257.605 203.207 261.969 206.751 261.155C207.958 260.966 209.131 260.605 210.236 260.083V260.083C210.313 260.3 210.334 260.532 210.298 260.759C210.262 260.986 210.17 261.201 210.031 261.383V261.383Z" fill="#F7A48B"/>
<path d="M211.296 274.387C211.296 281.586 198.703 279.916 198.703 279.916C193.302 279.659 189.969 281.316 189.969 281.316C181.868 283.893 170.458 285.463 170.458 285.463C170.46 285.448 170.46 285.432 170.458 285.416C169.69 282.992 168.38 280.775 166.627 278.932C166.537 278.824 166.439 278.722 166.334 278.628C166.803 278.354 167.236 278.024 167.623 277.644C167.783 277.481 167.993 277.375 168.219 277.342C168.445 277.309 168.676 277.351 168.876 277.462C170.511 278.393 175.32 280.332 184.996 278.481C185.656 278.34 186.302 278.144 186.929 277.895C188.638 277.272 190.446 276.966 192.265 276.993C192.265 276.993 200.536 277.339 203.5 274.035C203.631 273.888 203.811 273.794 204.007 273.768C204.202 273.742 204.401 273.787 204.566 273.895C205.814 274.697 208.719 276.08 211.068 273.444C211.179 273.748 211.256 274.065 211.296 274.387V274.387Z" fill="#F7A48B"/>
<path d="M169.48 251.039C169.533 251.335 169.526 251.639 169.461 251.932C169.395 252.226 169.272 252.504 169.099 252.749C168.81 253.24 168.451 253.686 168.033 254.073C167.216 254.85 166.204 255.39 165.104 255.637C165.37 255.141 165.697 254.681 166.077 254.266C166.426 253.871 166.796 253.494 167.184 253.136C167.564 252.79 167.957 252.451 168.355 252.123C168.769 251.804 169.146 251.44 169.48 251.039V251.039Z" fill="#F7A48B"/>
<path d="M173.967 251.648C175.383 249.687 177.465 248.309 179.824 247.77C178.415 249.74 176.33 251.123 173.967 251.654V251.648Z" fill="#F7A48B"/>
<path opacity="0.2" d="M171.173 288.884C171.232 289.356 171.166 289.835 170.979 290.272C170.793 290.71 170.494 291.09 170.112 291.373C166.182 294.361 153.05 307.593 139.244 358.043H113.014C113.014 358.043 136.379 342.743 154.602 303.727C154.602 303.727 160.969 291.198 158.444 273.543C164.7 276.021 170.165 280.572 171.173 288.884Z" fill="black"/>
<path d="M303.703 288.884C303.644 289.356 303.71 289.835 303.897 290.272C304.083 290.71 304.382 291.09 304.764 291.373C308.694 294.361 321.826 307.593 335.632 358.043H399.116C386.299 320.555 346.123 279.43 338.725 272.067C337.958 271.302 336.932 270.85 335.849 270.802C332.294 270.65 323.806 270.638 316.426 273.543C310.176 276.021 304.711 280.572 303.703 288.884Z" fill="#0066CC"/>
<path d="M304.125 250.113H308.688C311.236 250.113 313.257 255.221 313.257 255.221C314.534 258.056 315.489 258.32 315.489 258.32L332.065 270.726C332.065 270.726 316.836 270.023 308.559 278.616C308.454 278.71 308.356 278.812 308.266 278.92C306.547 280.788 305.242 282.998 304.436 285.405C304.434 285.42 304.434 285.436 304.436 285.452C304.436 285.452 293.025 283.882 284.924 281.304C284.924 281.304 281.591 279.647 276.191 279.905C276.191 279.905 263.597 281.574 263.597 274.375C263.64 274.061 263.716 273.753 263.826 273.455V273.455C264.517 271.569 267.247 267.598 277.597 269.49C277.597 269.49 282.089 270.779 288.509 267.955C288.509 267.955 282.728 264.997 280.672 260.633C280.672 260.633 275.798 260.885 272.712 260.247C272.712 260.247 267.721 265.009 264.851 261.372C264.71 261.192 264.616 260.98 264.578 260.755C264.539 260.53 264.556 260.299 264.628 260.083C264.69 259.866 264.8 259.665 264.95 259.497C267.033 257.107 269.481 255.061 272.202 253.435C273.758 252.552 275.545 252.16 277.327 252.31C277.327 252.31 281.351 243.377 293.921 246.745C293.916 246.757 298.461 244.619 304.125 250.113Z" fill="#F9B499"/>
<path d="M291.731 252.497L278.879 252.041C278.879 252.041 282.066 248.216 285.323 248.854C285.305 248.854 288.978 248.725 291.731 252.497Z" fill="#F7A48B"/>
<path d="M264.845 261.383C267.715 265.021 272.706 260.259 272.706 260.259C275.793 260.897 280.666 260.645 280.666 260.645C282.722 265.009 288.503 267.967 288.503 267.967C289.722 267.578 290.829 266.901 291.731 265.993C291.731 265.993 282.16 263.896 281.521 259.058C281.521 259.058 274.961 260.229 272.946 257.605C272.946 257.605 271.669 261.969 268.119 261.155C266.914 260.961 265.742 260.596 264.64 260.071C264.561 260.289 264.539 260.524 264.575 260.753C264.61 260.983 264.703 261.199 264.845 261.383V261.383Z" fill="#F7A48B"/>
<path d="M263.586 274.387C263.586 281.586 276.179 279.916 276.179 279.916C281.58 279.659 284.913 281.316 284.913 281.316C293.014 283.893 304.424 285.463 304.424 285.463C304.422 285.448 304.422 285.432 304.424 285.416C305.192 282.992 306.502 280.775 308.255 278.932C308.345 278.824 308.443 278.722 308.548 278.628C308.079 278.354 307.646 278.024 307.259 277.644C307.098 277.481 306.889 277.375 306.663 277.342C306.436 277.309 306.206 277.351 306.005 277.462C304.371 278.393 299.562 280.332 289.886 278.481C289.226 278.34 288.58 278.144 287.953 277.895C286.244 277.272 284.435 276.966 282.617 276.993C282.617 276.993 274.346 277.339 271.382 274.035C271.25 273.888 271.07 273.794 270.875 273.768C270.679 273.742 270.481 273.787 270.316 273.895C269.068 274.697 266.157 276.08 263.814 273.444C263.703 273.748 263.626 274.065 263.586 274.387Z" fill="#F7A48B"/>
<path d="M305.39 251.039C305.739 251.443 306.132 251.806 306.562 252.123C306.954 252.451 307.341 252.79 307.733 253.136C308.121 253.494 308.491 253.871 308.84 254.266C309.22 254.681 309.547 255.141 309.813 255.637C308.713 255.39 307.701 254.85 306.884 254.073C306.445 253.69 306.066 253.244 305.759 252.749C305.416 252.25 305.283 251.635 305.39 251.039V251.039Z" fill="#F7A48B"/>
<path d="M300.898 251.648C298.535 251.117 296.45 249.734 295.04 247.765C297.4 248.304 299.482 249.685 300.898 251.648Z" fill="#F7A48B"/>
<path opacity="0.2" d="M303.703 288.884C303.644 289.356 303.71 289.835 303.897 290.272C304.083 290.71 304.382 291.09 304.764 291.373C308.694 294.361 321.826 307.593 335.632 358.043H361.862C361.862 358.043 338.491 342.743 320.274 303.727C320.274 303.727 313.907 291.198 316.432 273.543C310.176 276.021 304.711 280.572 303.703 288.884Z" fill="black"/>
</svg>
