<svg width="24" height="24" viewBox="0 0 24 24" fill="none" xmlns="http://www.w3.org/2000/svg">
<path fill-rule="evenodd" clip-rule="evenodd" d="M13.9761 2.00031C14.0191 2.00031 14.0613 2.00394 14.1024 2.01091L14.2375 2.01171C14.4415 2.01171 14.6365 2.09471 14.7785 2.24171L19.8445 7.51871C19.9775 7.65771 20.0526 7.84471 20.0526 8.03771V17.2277C20.0685 19.7367 18.1125 21.7757 15.5995 21.8657H7.45947C5.01924 21.8132 3.06217 19.8414 3.00183 17.4259L3.00146 6.49071C3.06046 4.00971 5.10847 2.01171 7.57047 2.01171L13.8498 2.01091C13.8908 2.00394 13.933 2.00031 13.9761 2.00031ZM13.2255 3.51131L7.57346 3.51171C5.91646 3.51171 4.54046 4.85371 4.50146 6.50871V17.2277C4.46546 18.9287 5.80547 20.3287 7.49047 20.3657H15.5735C17.2425 20.3057 18.5635 18.9287 18.5525 17.2327L18.5525 8.98331L16.5441 8.98431C14.7131 8.97931 13.2261 7.48731 13.2261 5.65931L13.2255 3.51131ZM11.1429 9.15921C11.5569 9.15921 11.8929 9.49521 11.8929 9.90921L11.8925 14.1313L12.9549 13.0652C13.2469 12.7712 13.7219 12.7712 14.0159 13.0632C14.3089 13.3552 14.3099 13.8302 14.0179 14.1242L11.6988 16.4534C11.64 16.5184 11.57 16.573 11.4918 16.6142C11.4849 16.6163 11.4785 16.6195 11.4722 16.6226C11.4431 16.6384 11.4123 16.6511 11.3806 16.6617C11.3775 16.6613 11.3745 16.6623 11.3715 16.6633C11.2995 16.6877 11.2226 16.7002 11.1429 16.7002C11.0653 16.7002 10.9905 16.6884 10.9202 16.6665C10.9091 16.6624 10.8973 16.6584 10.8857 16.6542C10.8638 16.6469 10.8429 16.6381 10.8225 16.6284C10.8103 16.6221 10.7982 16.6161 10.7864 16.6097C10.7627 16.5973 10.7394 16.583 10.7171 16.5676C10.7094 16.5621 10.7019 16.5566 10.6944 16.551C10.6622 16.5272 10.6321 16.5007 10.6042 16.4719L8.26586 14.1242C7.97386 13.8302 7.97487 13.3552 8.26787 13.0632C8.56187 12.7712 9.03687 12.7712 9.32887 13.0652L10.3925 14.1333L10.3929 9.90921C10.3929 9.49521 10.7289 9.15921 11.1429 9.15921ZM14.7255 4.35231L14.7261 5.65931C14.7261 6.66331 15.5421 7.48131 16.5461 7.48431L17.7305 7.48331L14.7255 4.35231Z" fill="#31364C"/>
</svg>
