<svg width="16" height="16" viewBox="0 0 16 16" fill="none" xmlns="http://www.w3.org/2000/svg">
<path d="M6.49996 12.2501C6.30113 12.2492 6.1105 12.1707 5.96871 12.0313L2.46871 8.53133C2.32781 8.39043 2.24866 8.19934 2.24866 8.00008C2.24866 7.80082 2.32781 7.60973 2.46871 7.46883C2.6096 7.32793 2.8007 7.24878 2.99996 7.24878C3.19922 7.24878 3.39031 7.32793 3.53121 7.46883L6.49996 10.4376L12.9687 3.96883C13.0385 3.89907 13.1213 3.84373 13.2124 3.80597C13.3036 3.76821 13.4013 3.74878 13.5 3.74878C13.5986 3.74878 13.6963 3.76821 13.7875 3.80597C13.8786 3.84373 13.9614 3.89907 14.0312 3.96883C14.101 4.0386 14.1563 4.12142 14.1941 4.21257C14.2318 4.30372 14.2513 4.40142 14.2513 4.50008C14.2513 4.59874 14.2318 4.69644 14.1941 4.78759C14.1563 4.87874 14.101 4.96157 14.0312 5.03133L7.03121 12.0313C6.88942 12.1707 6.69879 12.2492 6.49996 12.2501V12.2501Z" fill="#34C759"/>
</svg>
