<svg width="17" height="16" viewBox="0 0 17 16" fill="none" xmlns="http://www.w3.org/2000/svg">
<g clip-path="url(#clip0_506_247)">
<path d="M0.5 6.75C0.5 5.784 1.284 5 2.25 5H3.75C3.94891 5 4.13968 5.07902 4.28033 5.21967C4.42098 5.36032 4.5 5.55109 4.5 5.75C4.5 5.94891 4.42098 6.13968 4.28033 6.28033C4.13968 6.42098 3.94891 6.5 3.75 6.5H2.25C2.1837 6.5 2.12011 6.52634 2.07322 6.57322C2.02634 6.62011 2 6.6837 2 6.75V14.25C2 14.388 2.112 14.5 2.25 14.5H9.75C9.8163 14.5 9.87989 14.4737 9.92678 14.4268C9.97366 14.3799 10 14.3163 10 14.25V12.75C10 12.5511 10.079 12.3603 10.2197 12.2197C10.3603 12.079 10.5511 12 10.75 12C10.9489 12 11.1397 12.079 11.2803 12.2197C11.421 12.3603 11.5 12.5511 11.5 12.75V14.25C11.5 14.7141 11.3156 15.1592 10.9874 15.4874C10.6592 15.8156 10.2141 16 9.75 16H2.25C1.78587 16 1.34075 15.8156 1.01256 15.4874C0.684374 15.1592 0.5 14.7141 0.5 14.25V6.75Z" fill="black"/>
<path d="M5.5 1.75C5.5 0.784 6.284 0 7.25 0H14.75C15.716 0 16.5 0.784 16.5 1.75V9.25C16.5 9.71413 16.3156 10.1592 15.9874 10.4874C15.6592 10.8156 15.2141 11 14.75 11H7.25C6.78587 11 6.34075 10.8156 6.01256 10.4874C5.68437 10.1592 5.5 9.71413 5.5 9.25V1.75ZM7.25 1.5C7.1837 1.5 7.12011 1.52634 7.07322 1.57322C7.02634 1.62011 7 1.6837 7 1.75V9.25C7 9.388 7.112 9.5 7.25 9.5H14.75C14.8163 9.5 14.8799 9.47366 14.9268 9.42678C14.9737 9.37989 15 9.3163 15 9.25V1.75C15 1.6837 14.9737 1.62011 14.9268 1.57322C14.8799 1.52634 14.8163 1.5 14.75 1.5H7.25Z" fill="black"/>
</g>
<defs>
<clipPath id="clip0_506_247">
<rect width="16" height="16" fill="white" transform="translate(0.5)"/>
</clipPath>
</defs>
</svg>
